<?xml version="1.0" standalone="no"?>
<!DOCTYPE svg PUBLIC "-//W3C//DTD SVG 20010904//EN"
 "http://www.w3.org/TR/2001/REC-SVG-20010904/DTD/svg10.dtd">
<svg version="1.0" xmlns="http://www.w3.org/2000/svg"
 width="300.000000pt" height="331.000000pt" viewBox="0 0 300.000000 331.000000"
 preserveAspectRatio="xMidYMid meet">
<metadata>
Created by potrace 1.10, written by Peter Selinger 2001-2011
</metadata>
<g transform="translate(0.000000,331.000000) scale(0.100000,-0.100000)"
fill="#000000" stroke="none">
<path d="M1445 2974 c-192 -71 -625 -155 -955 -184 -69 -6 -140 -14 -158 -16
l-34 -5 5 -587 c5 -635 8 -666 64 -837 120 -366 488 -737 976 -981 l148 -74
37 16 c57 23 271 137 338 179 208 132 438 339 567 510 82 109 179 301 206 410
40 158 43 209 48 792 4 474 3 574 -9 577 -7 2 -71 9 -143 15 -339 31 -766 110
-969 181 -69 23 -68 23 -121 4z m300 -119 c211 -52 524 -103 820 -134 l60 -6
0 -520 c-1 -286 -4 -546 -9 -577 l-7 -58 -50 0 -49 0 0 234 0 234 -113 28
-114 27 -106 -18 -107 -18 0 -109 0 -108 -150 0 -150 0 0 -136 0 -136 -59 4
c-73 5 -124 40 -155 107 -18 39 -21 65 -21 171 0 107 3 131 21 164 24 47 50
63 34 21 -16 -43 -12 -120 8 -144 16 -21 17 -19 18 73 2 96 7 121 26 110 7 -4
8 -31 4 -75 -6 -52 -4 -75 9 -98 20 -40 29 -39 21 1 -3 17 -3 60 0 96 7 60 8
63 20 41 7 -13 13 -42 14 -63 0 -40 19 -106 30 -106 12 0 3 235 -10 260 -12
25 -12 25 16 -2 27 -27 28 -31 26 -116 -2 -77 0 -90 19 -111 26 -27 33 -23 19
13 -8 23 -10 176 -2 176 13 0 33 -79 27 -108 -6 -33 9 -92 24 -92 4 0 8 39 9
88 2 94 10 149 22 157 5 3 7 -23 7 -57 -2 -72 11 -145 22 -132 8 9 -2 185 -14
254 -6 33 -5 34 9 16 18 -22 22 -46 32 -160 4 -56 9 -75 17 -67 11 11 12 36 6
142 -3 53 -10 74 -34 109 -17 23 -35 51 -41 61 -22 38 -50 63 -99 86 -27 13
-65 33 -83 44 -18 12 -49 21 -69 21 -19 0 -50 9 -67 19 -47 29 -120 26 -152
-6 -23 -23 -27 -24 -47 -10 -25 17 -84 20 -123 5 -15 -6 -45 -26 -66 -45 -21
-19 -45 -35 -54 -35 -33 0 -82 -41 -122 -103 -48 -75 -63 -109 -61 -145 0 -15
-2 -44 -6 -64 -4 -20 -4 -49 0 -65 11 -47 21 -14 50 180 3 20 9 37 14 37 9 0
4 -94 -10 -173 -6 -33 -8 -61 -5 -64 10 -10 46 88 46 125 0 51 17 106 40 134
27 32 27 5 0 -62 -11 -28 -20 -65 -20 -83 0 -17 -10 -55 -21 -83 -16 -37 -20
-62 -15 -88 9 -47 26 -46 26 2 1 20 9 55 20 77 11 22 19 61 20 86 0 31 7 57
23 79 34 51 48 47 21 -6 -17 -33 -24 -62 -23 -96 1 -26 -3 -53 -9 -61 -21 -24
-42 -98 -36 -123 9 -36 24 -29 24 10 0 19 5 38 10 41 6 4 10 -19 10 -62 0 -93
14 -110 29 -36 7 39 8 75 2 108 -6 32 -5 56 2 72 15 33 22 29 23 -14 5 -129
12 -195 21 -204 16 -16 25 117 11 183 -10 49 -9 59 5 82 21 31 43 36 27 7 -12
-24 -13 -111 -1 -130 7 -10 11 0 16 35 11 85 16 102 32 116 15 11 16 10 9 -12
-8 -25 -25 -232 -20 -238 1 -2 10 8 20 23 13 20 17 44 16 90 -3 65 11 120 28
110 6 -4 5 -16 -1 -33 -14 -35 -5 -87 26 -153 53 -116 15 -255 -82 -295 -18
-8 -67 -14 -113 -14 l-80 0 0 64 c0 42 4 66 12 68 13 5 -55 89 -125 156 l-35
34 -164 5 -164 6 -79 -92 c-88 -101 -94 -111 -71 -111 13 0 16 -12 16 -65 l0
-65 -44 0 c-41 0 -44 2 -50 33 -4 17 -10 278 -13 580 l-5 547 43 0 c188 0 823
115 1039 188 53 18 57 18 110 0 30 -10 118 -34 195 -53z m-280 -431 c-7 -15
-17 -50 -21 -78 l-7 -51 -9 35 c-9 41 -2 78 19 103 24 26 34 21 18 -9z m90 13
c12 -10 15 -16 6 -21 -6 -4 -18 -1 -26 8 -27 27 -13 36 20 13z m-208 -24 c3
-7 -3 -9 -15 -6 -11 3 -36 -3 -55 -12 -56 -26 -81 -14 -27 13 47 23 91 26 97
5z m166 -6 c5 -14 -24 -117 -33 -117 -6 0 -2 71 6 108 5 24 19 29 27 9z m138
-36 c41 -40 49 -61 25 -61 -8 0 -23 16 -35 35 -11 20 -27 38 -36 41 -8 4 -15
10 -15 15 0 19 24 7 61 -30z m65 3 c36 -38 44 -64 19 -64 -8 0 -15 7 -15 15 0
8 -14 30 -31 50 -41 46 -16 46 27 -1z m-117 -30 c24 -30 27 -54 9 -54 -11 0
-25 21 -45 68 -9 22 15 13 36 -14z m-404 -20 c-14 -15 -28 -39 -31 -53 -9 -43
-13 -51 -24 -51 -31 0 15 110 54 128 30 14 31 8 1 -24z m182 14 c24 -27 47
-88 32 -88 -5 0 -9 4 -9 8 0 5 -16 27 -35 49 -30 36 -35 53 -15 53 4 0 16 -10
27 -22z m439 -9 c19 -11 34 -22 34 -24 0 -1 7 -19 15 -39 8 -20 11 -36 6 -36
-5 0 -13 10 -17 23 -4 12 -25 39 -47 60 -45 41 -41 48 9 16z m-721 -41 c-27
-29 -50 -55 -52 -57 -2 -2 -3 3 -3 12 0 20 72 97 90 97 7 0 -9 -24 -35 -52z
m157 30 c-11 -13 -25 -35 -31 -50 -11 -29 -31 -38 -31 -15 0 15 28 57 50 74
26 21 35 14 12 -9z m308 -32 c-1 -6 -14 -27 -30 -46 -34 -39 -38 -27 -14 45
16 44 18 47 30 30 8 -11 14 -24 14 -29z m-268 -11 c-17 -35 -42 -47 -42 -21 0
12 44 56 56 56 2 0 -4 -16 -14 -35z m186 -53 c6 -18 8 -48 5 -66 -3 -20 -1
-36 6 -40 6 -4 11 -18 11 -32 0 -14 5 -34 11 -45 7 -14 7 -30 -2 -56 -6 -20
-11 -89 -11 -153 0 -107 3 -124 28 -179 20 -47 24 -65 16 -73 -18 -18 -14 -43
8 -63 11 -10 17 -21 15 -25 -7 -11 -178 -10 -195 1 -10 6 -11 9 -3 9 7 0 20
11 29 25 16 24 16 27 -4 48 l-21 23 25 64 c22 54 25 72 19 119 -4 31 -8 90 -9
131 0 41 -7 85 -14 98 -11 20 -11 27 1 45 14 22 25 77 30 152 2 22 9 51 17 65
15 27 13 30 38 -48z m-132 44 c3 -8 0 -24 -6 -36 -9 -17 -14 -19 -25 -10 -11
9 -11 17 -3 36 13 27 26 31 34 10z m375 -22 c22 -39 32 -84 19 -84 -6 0 -15
12 -21 28 -10 24 -27 63 -37 86 -11 23 25 -4 39 -30z m66 -21 c17 -41 18 -102
1 -85 -6 6 -13 26 -15 43 -2 18 -10 46 -18 62 -19 38 -19 43 2 26 9 -8 22 -28
30 -46z m-119 5 c12 -20 13 -31 6 -38 -8 -8 -17 0 -32 30 -16 33 -17 40 -5 38
8 -2 22 -15 31 -30z m177 -30 c17 -59 19 -87 5 -108 -12 -20 -18 -3 -23 70 -2
30 -7 63 -11 73 -5 10 -4 17 3 17 5 0 17 -23 26 -52z m-236 15 c18 -39 -3 -53
-23 -15 -19 38 -20 42 -3 42 8 0 19 -12 26 -27z m-211 -30 c6 -18 8 -33 4 -33
-15 1 -43 52 -38 67 8 20 20 8 34 -34z m-193 -8 c-14 -21 -25 -48 -25 -59 0
-22 -17 -46 -32 -46 -22 0 30 123 59 139 27 15 26 7 -2 -34z m51 -20 c-12 -24
-27 -44 -33 -45 -17 0 -16 4 7 50 30 58 53 53 26 -5z m284 -14 c-17 -17 -33
-31 -35 -31 -7 0 14 62 26 76 11 13 14 13 26 1 12 -12 10 -19 -17 -46z m-227
9 c-15 -26 -43 -42 -43 -25 0 15 34 55 47 55 12 0 11 -5 -4 -30z m57 -32 c30
-49 25 -65 -10 -31 -20 20 -28 36 -24 46 8 23 11 22 34 -15z m330 -8 c23 -45
24 -50 10 -50 -8 0 -50 70 -50 85 0 18 23 -1 40 -35z m-60 9 c7 -11 9 -23 6
-26 -8 -9 -36 17 -36 33 0 21 18 17 30 -7z m-56 -14 c3 -8 1 -15 -5 -15 -5 0
-21 -12 -34 -26 -30 -33 -33 -13 -4 27 23 32 34 36 43 14z m706 -300 l0 -245
-31 0 -31 0 4 80 3 80 -43 0 -44 0 4 -80 c3 -80 3 -80 -22 -80 l-25 0 3 230 3
229 32 6 c18 3 52 10 77 14 25 5 51 9 58 10 9 1 12 -54 12 -244z m-916 168 c3
-21 5 -47 5 -58 -1 -31 -28 33 -29 68 0 40 16 33 24 -10z m1006 -33 c0 -29 -4
-40 -15 -40 -11 0 -15 11 -15 40 0 29 4 40 15 40 11 0 15 -11 15 -40z m80 -10
c0 -33 -3 -40 -20 -40 -17 0 -20 7 -20 40 0 33 3 40 20 40 17 0 20 -7 20 -40z
m-76 -113 c1 -29 -3 -37 -16 -37 -14 0 -18 9 -18 41 0 32 3 40 16 37 12 -2 17
-14 18 -41z m-1695 -39 c66 -69 71 -76 71 -118 0 -43 -2 -46 -45 -73 -40 -24
-56 -27 -130 -27 l-85 0 0 81 0 80 57 65 c31 35 57 64 59 64 1 0 34 -33 73
-72z m231 54 c14 -9 47 -40 73 -68 l47 -51 0 -73 c0 -62 4 -77 22 -97 19 -20
31 -23 105 -23 47 0 93 5 104 10 15 9 19 7 19 -5 0 -14 4 -14 33 1 17 10 37
24 44 33 6 9 15 12 20 8 11 -11 -43 -57 -66 -57 -11 0 -21 -7 -25 -15 -4 -12
-28 -15 -128 -14 -166 1 -202 8 -206 38 -2 13 1 28 7 34 6 6 11 35 11 64 0 71
-26 99 -85 93 -26 -3 -42 -16 -58 -48 -17 -36 -32 -32 -35 9 -2 26 -18 53 -57
101 -30 36 -51 68 -48 72 3 3 49 6 102 6 75 0 102 -4 121 -18z m1540 -22 c0
-33 -3 -40 -20 -40 -17 0 -20 7 -20 40 0 33 3 40 20 40 17 0 20 -7 20 -40z
m-390 -24 c0 -11 -28 -14 -135 -14 -113 -1 -135 1 -135 13 0 13 23 15 135 15
108 0 135 -3 135 -14z m0 -136 l0 -90 -26 0 c-26 0 -26 0 -22 70 l4 70 -33 0
-33 0 0 -70 0 -70 -80 0 -80 0 0 90 0 90 135 0 135 0 0 -90z m310 40 c0 -29
-4 -40 -15 -40 -11 0 -15 11 -15 40 0 29 4 40 15 40 11 0 15 -11 15 -40z m78
-3 c3 -32 0 -37 -17 -37 -18 0 -21 6 -21 41 0 33 3 40 18 37 12 -2 18 -14 20
-41z m-1516 -68 c1 -34 1 -62 -2 -64 -3 -2 -20 10 -38 26 -24 22 -32 37 -32
64 0 33 2 35 34 35 l34 0 4 -61z m1501 3 c21 -2 27 -7 27 -26 0 -13 9 -35 21
-50 18 -22 28 -26 75 -26 51 0 54 -1 54 -26 0 -24 -2 -25 -32 -18 -18 4 -109
6 -203 5 -141 -1 -176 1 -208 15 l-37 17 22 24 c26 28 33 28 60 3 12 -11 29
-20 38 -20 26 0 57 35 64 72 7 37 5 36 119 30z m-1603 -73 c0 -49 -15 -79 -39
-79 -23 0 -31 19 -31 76 0 44 0 44 35 44 34 0 35 -1 35 -41z m61 -8 c27 -27
29 -35 27 -96 -1 -60 -4 -68 -25 -78 -16 -7 -23 -19 -23 -39 0 -21 -6 -31 -26
-38 -14 -6 -27 -10 -30 -10 -2 0 -4 36 -4 81 0 72 3 83 23 99 17 14 22 28 21
64 0 25 1 46 3 46 3 0 18 -13 34 -29z m694 4 c22 -11 43 -24 46 -29 4 -5 12
-5 19 -1 14 9 280 9 289 0 3 -4 -3 -13 -13 -21 -27 -19 -281 -20 -293 -1 -4 7
-22 19 -40 26 -17 7 -40 22 -50 33 -19 23 -18 22 42 -7z m-827 -93 c19 -13 22
-23 22 -88 0 -83 -8 -90 -66 -55 -31 19 -32 21 -37 113 -5 91 -4 94 22 117
l26 24 6 -48 c4 -35 12 -53 27 -63z m1242 83 c11 -13 8 -15 -20 -15 -28 0 -31
2 -20 15 7 8 16 15 20 15 4 0 13 -7 20 -15z m-1376 -25 c20 -20 -17 -30 -109
-29 -49 1 -102 -2 -117 -6 -23 -6 -29 -3 -37 16 -5 13 -7 26 -6 29 6 10 259 0
269 -10z m1542 -54 c6 -6 18 -32 27 -57 l15 -47 -62 -41 c-53 -35 -70 -41
-115 -41 -65 0 -141 18 -141 34 0 14 45 150 55 166 9 14 206 2 221 -14z
m-1521 -123 c0 -97 7 -163 21 -215 5 -15 17 -18 75 -18 67 0 69 1 69 25 0 31
9 31 63 3 122 -65 355 11 282 91 -9 11 -36 20 -69 24 -105 11 -146 53 -146
149 l0 53 480 0 c316 0 479 -3 476 -10 -3 -5 -10 -27 -17 -47 -12 -36 -14 -38
-56 -38 -88 0 -154 -50 -134 -102 46 -120 458 -148 637 -43 56 33 94 83 94
124 0 27 -5 34 -37 47 -35 15 -70 14 -129 -2 -17 -4 -23 0 -28 19 -3 14 -8 31
-11 39 -4 11 29 13 180 13 l186 0 -6 -24 c-14 -54 -74 -193 -115 -265 -152
-266 -478 -547 -856 -738 l-120 -61 -146 75 c-156 81 -339 197 -428 273 -181
154 -340 335 -418 476 -33 62 -102 234 -102 257 0 4 57 6 127 5 l128 -3 0
-107z m275 2 c0 -59 68 -112 156 -123 80 -10 85 -33 14 -57 -67 -22 -157 -16
-227 14 -49 22 -53 26 -53 57 0 30 3 33 32 36 32 3 36 8 54 76 5 17 24 15 24
-3z m1467 -1 c15 -41 -64 -108 -167 -139 -31 -9 -105 -19 -170 -21 l-115 -5
52 19 c29 10 78 36 110 57 142 95 163 105 225 105 44 0 60 -4 65 -16z m-532
-33 c-9 -30 26 -59 82 -66 79 -10 80 -11 48 -25 -45 -21 -183 -19 -222 3 -47
25 -59 52 -33 74 24 21 53 31 98 32 29 1 32 -2 27 -18z m-1090 -41 c11 0 15
-10 15 -36 l0 -37 -47 7 c-54 7 -63 17 -63 69 l0 37 40 -20 c21 -11 46 -20 55
-20z"/>
<path d="M1533 2760 c-23 -10 -39 -49 -30 -75 4 -8 24 -26 47 -40 42 -27 51
-49 23 -59 -11 -5 -23 1 -34 15 -20 26 -52 20 -42 -8 12 -34 25 -43 64 -43 78
0 95 75 27 119 -21 14 -38 32 -38 43 0 22 28 24 36 3 4 -8 16 -15 29 -15 18 0
22 4 18 20 -6 24 -40 50 -63 49 -8 0 -25 -4 -37 -9z"/>
<path d="M1300 2752 c-24 -8 -30 -23 -30 -78 0 -76 -14 -75 -25 3 -9 59 -13
68 -32 71 -28 4 -28 0 -2 -116 21 -90 23 -93 48 -90 24 3 27 8 33 62 4 32 9
61 11 63 3 2 10 -24 16 -57 11 -56 14 -60 40 -60 28 0 28 1 39 94 15 122 16
116 -13 116 -24 0 -25 -2 -26 -72 0 -78 -11 -71 -24 16 -8 50 -12 56 -35 48z"/>
<path d="M1664 2656 c-7 -86 -6 -107 4 -111 26 -10 32 -5 32 30 0 32 3 35 28
35 56 0 92 53 72 106 -9 24 -21 29 -86 39 l-40 6 -10 -105z m84 55 c22 -13 11
-56 -15 -59 -24 -4 -30 17 -17 52 7 18 13 19 32 7z"/>
<path d="M1063 2730 c-33 -13 -46 -47 -41 -107 5 -62 36 -103 78 -103 62 0 92
59 70 139 -19 70 -53 93 -107 71z m54 -61 c18 -35 17 -98 -3 -106 -22 -8 -35
9 -44 55 -13 72 19 107 47 51z"/>
<path d="M1839 2708 c0 -18 -6 -66 -13 -105 -13 -73 -13 -73 10 -73 18 0 23 7
29 40 4 22 10 40 15 40 11 0 20 -26 20 -56 0 -17 8 -27 26 -35 15 -5 28 -8 30
-6 2 1 -3 23 -10 49 -13 42 -13 46 5 61 19 17 25 62 11 84 -10 16 -57 33 -93
33 -26 0 -29 -3 -30 -32z m80 -17 c19 -12 4 -51 -20 -51 -14 0 -19 7 -19 30 0
30 13 37 39 21z"/>
<path d="M1999 2618 c-9 -57 -16 -104 -15 -104 1 -1 10 -4 22 -8 19 -6 22 1
38 94 18 103 16 120 -12 120 -14 0 -20 -18 -33 -102z"/>
<path d="M888 2703 c-10 -2 -18 -6 -18 -8 0 -7 41 -199 43 -201 1 -1 26 3 55
8 40 8 52 15 50 27 -3 11 -14 16 -36 15 -35 -2 -36 -2 -53 99 -6 37 -14 66
-18 66 -3 -1 -14 -3 -23 -6z"/>
<path d="M2087 2618 c-10 -46 -20 -93 -23 -105 -5 -19 -2 -23 19 -23 22 0 25
5 31 52 11 79 20 80 31 3 10 -66 12 -70 38 -73 22 -3 27 1 27 18 0 12 9 58 21
102 11 44 19 82 17 83 -2 2 -12 5 -22 7 -16 2 -21 -5 -28 -37 -18 -92 -21 -93
-32 -20 -10 64 -13 70 -36 73 -25 3 -27 -1 -43 -80z"/>
<path d="M749 2673 c-13 -3 -13 -14 5 -101 11 -53 20 -98 22 -100 1 -2 25 0
53 4 45 6 51 9 51 30 0 20 -4 22 -34 17 l-33 -5 -13 81 c-8 45 -18 80 -24 80
-6 -1 -18 -3 -27 -6z"/>
<path d="M656 2652 c-2 -4 5 -51 17 -105 17 -76 25 -97 39 -97 25 0 30 15 19
57 -5 21 -15 64 -21 96 -9 45 -15 57 -30 57 -10 0 -21 -4 -24 -8z"/>
<path d="M2307 2649 c-27 -16 -57 -87 -57 -135 0 -52 26 -78 70 -72 16 3 30 1
30 -4 0 -22 28 -4 33 21 3 16 9 40 12 54 6 21 2 26 -25 35 -26 10 -32 9 -37
-5 -4 -9 -1 -19 5 -21 17 -5 15 -27 -4 -43 -39 -32 -49 56 -13 122 12 24 38
25 46 2 14 -37 43 -43 43 -10 0 44 -65 79 -103 56z"/>
<path d="M585 2583 c4 -31 9 -63 13 -72 13 -37 -14 4 -34 52 -18 41 -27 52
-45 52 -22 0 -23 -4 -21 -45 2 -25 5 -58 9 -75 8 -45 -9 -21 -32 42 -21 59
-31 69 -54 54 -12 -8 -8 -25 26 -98 34 -75 44 -88 64 -88 23 0 24 3 24 63 0
34 1 62 3 62 1 0 13 -24 26 -54 21 -48 26 -53 50 -49 26 5 26 6 20 77 -9 122
-13 136 -36 136 -19 0 -20 -4 -13 -57z"/>
<path d="M2457 2592 c-27 -29 -21 -68 13 -94 30 -22 39 -51 20 -63 -13 -8 -42
14 -35 25 6 10 -34 25 -42 16 -3 -3 -2 -17 1 -31 9 -35 67 -61 99 -44 50 27
50 69 1 114 -35 33 -38 55 -7 55 8 0 17 -9 20 -20 3 -11 14 -20 24 -20 25 0
25 34 -1 60 -25 25 -72 26 -93 2z"/>
<path d="M2153 1963 c-7 -2 -13 -20 -13 -39 0 -27 4 -34 20 -34 17 0 20 7 20
40 0 40 -3 43 -27 33z"/>
<path d="M2210 1931 c0 -35 2 -38 25 -33 21 4 25 10 25 38 0 30 -3 34 -25 34
-22 0 -25 -4 -25 -39z"/>
<path d="M2140 1815 c0 -28 4 -35 20 -35 16 0 20 7 20 35 0 28 -4 35 -20 35
-16 0 -20 -7 -20 -35z"/>
<path d="M2210 1815 c0 -28 4 -35 20 -35 16 0 20 7 20 35 0 28 -4 35 -20 35
-16 0 -20 -7 -20 -35z"/>
<path d="M550 1650 c0 -38 2 -40 30 -40 28 0 30 2 30 40 0 38 -2 40 -30 40
-28 0 -30 -2 -30 -40z"/>
<path d="M630 1651 c0 -40 1 -41 33 -41 33 0 34 1 33 38 -2 34 -4 37 -34 40
-31 3 -32 2 -32 -37z"/>
<path d="M1850 1660 c0 -39 1 -40 35 -40 34 0 35 1 35 40 0 39 -1 40 -35 40
-34 0 -35 -1 -35 -40z"/>
<path d="M1992 1449 c9 -28 57 -42 99 -30 58 17 54 27 -9 27 -31 -1 -65 3 -76
8 -14 7 -18 6 -14 -5z"/>
<path d="M1450 1350 l-12 -49 -61 -3 -62 -3 47 -30 c27 -16 48 -33 48 -37 0
-4 -9 -30 -20 -58 -11 -27 -17 -50 -14 -50 3 0 25 14 50 30 l44 31 44 -31 c25
-16 47 -30 50 -30 3 0 -3 24 -14 53 -11 28 -20 53 -20 54 0 1 21 17 46 35 l47
33 -59 5 -58 5 -15 48 c-8 26 -18 47 -22 47 -4 0 -12 -22 -19 -50z m43 -75
c17 -17 12 -51 -9 -59 -8 -3 -24 4 -35 15 -20 20 -20 22 -3 40 21 23 28 24 47
4z"/>
<path d="M1240 1159 c0 -6 16 -27 35 -46 19 -19 28 -32 19 -29 -37 14 -91 17
-119 6 -29 -11 -30 -12 -10 -27 20 -14 44 -14 133 3 20 4 32 2 32 -5 0 -6 -6
-11 -14 -11 -8 0 -28 -11 -43 -25 l-28 -24 36 -1 c24 0 42 7 55 21 19 21 45
22 88 4 14 -6 17 -5 11 4 -4 7 -27 22 -51 33 -27 11 -50 30 -59 48 -9 16 -29
36 -45 45 -35 18 -40 18 -40 4z"/>
<path d="M1664 1154 c-16 -8 -38 -28 -48 -44 -9 -17 -38 -40 -64 -53 -25 -12
-48 -29 -51 -37 -3 -12 1 -11 22 3 34 22 53 21 84 -3 14 -11 40 -20 57 -20
l31 1 -26 22 c-14 12 -35 28 -45 35 -20 13 -14 13 86 -4 19 -3 49 0 65 6 l30
12 -29 15 c-28 15 -60 14 -126 -2 l-25 -6 25 15 c25 14 68 76 53 76 -4 0 -22
-7 -39 -16z"/>
<path d="M1988 1013 l-48 -26 19 -31 c10 -17 33 -58 51 -91 18 -33 34 -61 36
-63 1 -2 25 11 52 28 34 21 49 36 45 46 -7 18 -23 17 -47 -1 -14 -11 -23 -12
-33 -4 -20 17 -16 35 12 47 17 8 23 17 18 28 -6 15 -17 15 -55 -1 -12 -5 -20
-1 -25 11 -4 10 -2 19 4 21 5 2 18 9 27 16 14 10 15 15 4 29 -12 16 -16 15
-60 -9z"/>
<path d="M881 949 c-70 -75 -73 -81 -55 -94 17 -13 21 -12 36 6 14 17 21 18
38 9 16 -9 20 -18 16 -35 -5 -18 -1 -27 15 -35 11 -7 22 -10 23 -8 2 2 15 48
31 102 l27 100 -22 18 c-12 10 -25 18 -29 17 -3 0 -39 -36 -80 -80z m79 6 c0
-3 -20 -53 -26 -63 0 -1 -8 0 -17 4 -15 5 -14 9 6 34 20 26 37 38 37 25z"/>
<path d="M1043 871 c-18 -48 -33 -93 -33 -99 0 -6 23 -18 51 -27 43 -15 53
-15 60 -4 14 22 11 27 -21 34 -16 4 -30 10 -30 15 0 5 12 41 27 80 22 60 24
73 12 81 -27 17 -34 8 -66 -80z"/>
<path d="M1853 952 c-52 -8 -67 -76 -34 -149 33 -71 84 -89 134 -45 17 15 25
72 10 72 -14 0 -29 -15 -36 -32 -12 -33 -44 -21 -61 22 -23 57 -21 90 4 90 11
0 20 -4 20 -10 0 -6 10 -5 25 2 23 10 24 13 9 29 -18 20 -39 26 -71 21z"/>
<path d="M1206 908 c-16 -51 -46 -191 -42 -195 8 -9 105 -31 110 -25 3 3 6 14
6 24 0 13 -8 18 -30 18 -35 0 -36 2 -10 100 15 57 16 76 7 82 -18 12 -37 10
-41 -4z"/>
<path d="M1708 904 c-3 -3 2 -32 12 -65 22 -70 14 -69 -31 6 -21 35 -38 54
-47 50 -8 -3 -19 -5 -26 -5 -10 0 -10 -16 1 -77 7 -43 16 -92 18 -109 5 -27 9
-31 30 -26 18 3 24 9 21 21 -17 58 -27 104 -23 107 2 2 20 -21 41 -51 28 -42
42 -55 61 -55 14 0 25 3 25 8 0 7 -25 133 -35 180 -5 20 -33 30 -47 16z"/>
<path d="M1346 863 c-3 -16 -8 -55 -11 -88 -4 -33 -9 -68 -11 -77 -3 -10 3
-19 16 -23 12 -4 23 -5 25 -3 2 2 9 37 15 78 6 41 13 90 16 108 4 29 2 32 -20
32 -19 0 -26 -6 -30 -27z"/>
<path d="M1446 784 c-22 -86 -25 -109 -14 -115 24 -15 37 -9 40 18 2 21 9 27
30 27 22 1 29 -4 33 -25 5 -21 12 -27 31 -25 20 1 24 5 20 21 -3 11 -16 59
-28 108 -17 66 -27 87 -40 87 -9 0 -23 2 -30 5 -10 4 -21 -22 -42 -101z m68 4
c6 -34 5 -38 -14 -38 -17 0 -19 4 -14 28 14 65 18 66 28 10z"/>
<path d="M202 1937 c-44 -47 -55 -94 -48 -207 5 -97 5 -102 -8 -63 -14 43 -52
103 -65 103 -4 0 -4 -27 0 -61 5 -47 16 -74 45 -116 23 -34 40 -72 45 -101 9
-60 4 -64 -16 -16 -18 43 -52 84 -71 84 -9 0 -10 -10 -2 -42 12 -54 41 -102
78 -128 25 -18 78 -125 67 -136 -2 -2 -15 13 -28 33 -23 36 -87 88 -97 78 -9
-8 30 -90 56 -118 15 -16 44 -37 64 -48 27 -14 45 -34 64 -72 l26 -52 -33 32
c-31 29 -106 69 -115 61 -2 -2 12 -27 31 -55 21 -32 48 -56 72 -68 104 -47
121 -57 144 -82 21 -23 22 -25 4 -18 -68 27 -108 37 -131 31 l-27 -7 41 -30
c48 -35 97 -51 133 -44 19 5 37 -3 76 -35 46 -36 73 -49 73 -34 0 3 -34 38
-75 77 -68 65 -76 78 -90 132 -18 72 -45 135 -57 135 -11 0 -6 -106 7 -134 14
-32 -13 -9 -32 27 -12 24 -17 61 -18 149 0 64 -4 121 -9 125 -16 16 -36 -32
-36 -86 0 -60 -12 -60 -28 2 -9 31 -7 50 9 99 20 63 24 128 9 163 -7 18 -10
14 -29 -25 -11 -25 -21 -61 -21 -80 -1 -29 -3 -31 -10 -15 -17 40 -10 102 19
166 16 35 32 88 36 118 6 50 5 53 -10 41 -22 -18 -53 -80 -64 -127 -9 -36 -9
-35 -10 22 -1 46 6 73 26 115 20 42 27 75 31 143 2 48 2 87 0 87 -2 0 -14 -10
-26 -23z"/>
<path d="M2762 1872 c4 -69 11 -98 32 -137 20 -39 26 -63 25 -110 -1 -58 -1
-58 -10 -22 -11 47 -32 89 -55 108 -16 13 -17 10 -11 -44 3 -31 17 -82 31
-113 27 -58 33 -129 16 -169 -7 -16 -9 -12 -10 20 0 22 -10 60 -22 85 -20 43
-21 44 -28 20 -14 -45 -10 -97 11 -153 20 -53 20 -57 5 -111 -9 -31 -20 -56
-24 -56 -4 0 -6 26 -4 57 2 40 -1 64 -11 78 -14 18 -16 17 -27 -25 -8 -28 -9
-71 -5 -117 6 -68 5 -77 -20 -119 -26 -44 -48 -57 -25 -15 6 12 10 45 8 74
l-3 52 -28 -55 c-15 -30 -27 -63 -27 -72 0 -46 -35 -101 -99 -155 -36 -31 -67
-60 -69 -64 -8 -20 24 -7 66 28 39 32 52 37 98 38 42 0 62 7 95 30 53 38 60
55 22 55 -25 -1 -50 -8 -118 -35 -18 -7 -17 -5 4 18 23 25 40 35 144 82 24 12
51 36 72 68 19 28 33 53 31 55 -9 8 -84 -32 -115 -61 l-33 -32 21 41 c11 23
34 53 51 65 80 61 104 87 121 124 10 22 19 46 19 53 0 22 -54 -13 -94 -60
l-36 -43 15 44 c9 25 37 67 64 96 49 52 75 107 69 147 l-3 23 -28 -28 c-15
-15 -35 -43 -43 -63 -20 -48 -24 -40 -13 21 5 29 24 72 44 101 34 49 66 157
51 172 -4 4 -16 -4 -26 -18 -18 -23 -25 -39 -45 -95 -14 -38 -17 4 -6 76 8 51
8 82 0 112 -11 46 -56 117 -72 117 -6 0 -8 -32 -5 -88z"/>
</g>
</svg>
